<svg width="48" height="24" viewBox="0 0 48 24" fill="none" xmlns="http://www.w3.org/2000/svg">
<path fill-rule="evenodd" clip-rule="evenodd" d="M45.748 2.90591C48.7507 5.88221 48.7507 10.7077 45.7479 13.684L37.5924 21.7678C35.054 24.2838 31.1824 24.6729 28.2317 22.9351C27.319 22.3976 27.327 21.1646 28.0777 20.4205C28.8284 19.6764 30.0537 19.7404 31.0727 20.0358C32.3775 20.4141 33.8448 20.0932 34.8739 19.0732L43.0294 10.9895C44.5308 9.50131 44.5308 7.08861 43.0295 5.60041C41.5281 4.11221 39.0939 4.11221 37.5925 5.60041L21.2816 21.7677C18.2788 24.744 13.4104 24.744 10.4077 21.7677L2.2521 13.684C-0.750698 10.7078 -0.750698 5.88221 2.2521 2.90591C5.2548 -0.0703895 10.1232 -0.0703895 13.1259 2.90591L15.8445 5.60041L19.2426 2.23221C21.781 -0.283788 25.6525 -0.672889 28.6033 1.06491C29.516 1.60241 29.508 2.83541 28.7573 3.57951C28.0066 4.32361 26.7812 4.25961 25.7623 3.96421C24.4575 3.58591 22.9902 3.90681 21.9611 4.92681L18.4659 8.39121C17.0181 9.82621 14.6708 9.82621 13.2231 8.39121L10.4075 5.60041C8.9061 4.11231 6.4719 4.11231 4.9705 5.60041C3.4692 7.08861 3.4692 9.50131 4.9706 10.9895L13.1261 19.0731C14.6275 20.5613 17.0617 20.5613 18.5631 19.0731L34.874 2.90581C37.8768 -0.0704887 42.7453 -0.0704894 45.748 2.90591Z" fill="#E24E69"/>
</svg>
